<svg xmlns="http://www.w3.org/2000/svg" xmlns:xlink="http://www.w3.org/1999/xlink" id="processonSvg1000" viewBox="190.03548895899053 82.95324427480921 873.9645110410095 1016.0467557251908" width="873.9645110410095" height="1016.0467557251908"><defs id="ProcessOnDefs1001"><marker id="ProcessOnMarker1025" markerUnits="userSpaceOnUse" orient="auto" markerWidth="16.23606797749979" markerHeight="10.550836550532098" viewBox="-1.0 -1.3763819204711736 16.23606797749979 10.550836550532098" refX="-1.0" refY="3.8990363547948754"><path id="ProcessOnPath1026" d="M12.0 3.8990363547948754L0.0 7.798072709589751V0.0Z" stroke="#000000" stroke-width="2.0" fill="#000000" transform="matrix(1.0,0.0,0.0,1.0,0.0,0.0)"/></marker><marker id="ProcessOnMarker1043" markerUnits="userSpaceOnUse" orient="auto" markerWidth="14.289086868996552" markerHeight="19.055054660878554" viewBox="-0.5877852522924731 -0.8090169943749475 14.289086868996552 19.055054660878554" refX="12.0" refY="8.71851033606433"><path id="ProcessOnPath1044" d="M0 0L12.0 8.71851033606433L0 17.43702067212866" stroke="#323232" stroke-width="2.0" fill="none" transform="matrix(1.0,0.0,0.0,1.0,0.0,0.0)"/></marker><marker id="ProcessOnMarker1050" markerUnits="userSpaceOnUse" orient="auto" markerWidth="14.289086868996552" markerHeight="19.055054660878554" viewBox="-0.5877852522924731 -0.8090169943749475 14.289086868996552 19.055054660878554" refX="12.0" refY="8.71851033606433"><path id="ProcessOnPath1051" d="M0 0L12.0 8.71851033606433L0 17.43702067212866" stroke="#323232" stroke-width="2.0" fill="none" transform="matrix(1.0,0.0,0.0,1.0,0.0,0.0)"/></marker><marker id="ProcessOnMarker1057" markerUnits="userSpaceOnUse" orient="auto" markerWidth="14.289086868996552" markerHeight="19.055054660878554" viewBox="-0.5877852522924731 -0.8090169943749475 14.289086868996552 19.055054660878554" refX="12.0" refY="8.71851033606433"><path id="ProcessOnPath1058" d="M0 0L12.0 8.71851033606433L0 17.43702067212866" stroke="#323232" stroke-width="2.0" fill="none" transform="matrix(1.0,0.0,0.0,1.0,0.0,0.0)"/></marker><marker id="ProcessOnMarker1064" markerUnits="userSpaceOnUse" orient="auto" markerWidth="14.289086868996552" markerHeight="19.055054660878554" viewBox="-0.5877852522924731 -0.8090169943749475 14.289086868996552 19.055054660878554" refX="12.0" refY="8.71851033606433"><path id="ProcessOnPath1065" d="M0 0L12.0 8.71851033606433L0 17.43702067212866" stroke="#323232" stroke-width="2.0" fill="none" transform="matrix(1.0,0.0,0.0,1.0,0.0,0.0)"/></marker><marker id="ProcessOnMarker1071" markerUnits="userSpaceOnUse" orient="auto" markerWidth="14.289086868996552" markerHeight="19.055054660878554" viewBox="-0.5877852522924731 -0.8090169943749475 14.289086868996552 19.055054660878554" refX="12.0" refY="8.71851033606433"><path id="ProcessOnPath1072" d="M0 0L12.0 8.71851033606433L0 17.43702067212866" stroke="#323232" stroke-width="2.0" fill="none" transform="matrix(1.0,0.0,0.0,1.0,0.0,0.0)"/></marker><marker id="ProcessOnMarker1078" markerUnits="userSpaceOnUse" orient="auto" markerWidth="14.289086868996552" markerHeight="19.055054660878554" viewBox="-0.5877852522924731 -0.8090169943749475 14.289086868996552 19.055054660878554" refX="12.0" refY="8.71851033606433"><path id="ProcessOnPath1079" d="M0 0L12.0 8.71851033606433L0 17.43702067212866" stroke="#323232" stroke-width="2.0" fill="none" transform="matrix(1.0,0.0,0.0,1.0,0.0,0.0)"/></marker><marker id="ProcessOnMarker1085" markerUnits="userSpaceOnUse" orient="auto" markerWidth="14.289086868996552" markerHeight="19.055054660878554" viewBox="-0.5877852522924731 -0.8090169943749475 14.289086868996552 19.055054660878554" refX="12.0" refY="8.71851033606433"><path id="ProcessOnPath1086" d="M0 0L12.0 8.71851033606433L0 17.43702067212866" stroke="#323232" stroke-width="2.0" fill="none" transform="matrix(1.0,0.0,0.0,1.0,0.0,0.0)"/></marker><marker id="ProcessOnMarker1092" markerUnits="userSpaceOnUse" orient="auto" markerWidth="14.289086868996552" markerHeight="19.055054660878554" viewBox="-0.5877852522924731 -0.8090169943749475 14.289086868996552 19.055054660878554" refX="12.0" refY="8.71851033606433"><path id="ProcessOnPath1093" d="M0 0L12.0 8.71851033606433L0 17.43702067212866" stroke="#323232" stroke-width="2.0" fill="none" transform="matrix(1.0,0.0,0.0,1.0,0.0,0.0)"/></marker><marker id="ProcessOnMarker1100" markerUnits="userSpaceOnUse" orient="auto" markerWidth="14.289086868996552" markerHeight="19.055054660878554" viewBox="-0.5877852522924731 -0.8090169943749475 14.289086868996552 19.055054660878554" refX="12.0" refY="8.71851033606433"><path id="ProcessOnPath1101" d="M0 0L12.0 8.71851033606433L0 17.43702067212866" stroke="#323232" stroke-width="2.0" fill="none" transform="matrix(1.0,0.0,0.0,1.0,0.0,0.0)"/></marker><marker id="ProcessOnMarker1109" markerUnits="userSpaceOnUse" orient="auto" markerWidth="14.289086868996552" markerHeight="19.055054660878554" viewBox="-0.5877852522924731 -0.8090169943749475 14.289086868996552 19.055054660878554" refX="12.0" refY="8.71851033606433"><path id="ProcessOnPath1110" d="M0 0L12.0 8.71851033606433L0 17.43702067212866" stroke="#323232" stroke-width="2.0" fill="none" transform="matrix(1.0,0.0,0.0,1.0,0.0,0.0)"/></marker><marker id="ProcessOnMarker1116" markerUnits="userSpaceOnUse" orient="auto" markerWidth="14.289086868996552" markerHeight="19.055054660878554" viewBox="-0.5877852522924731 -0.8090169943749475 14.289086868996552 19.055054660878554" refX="12.0" refY="8.71851033606433"><path id="ProcessOnPath1117" d="M0 0L12.0 8.71851033606433L0 17.43702067212866" stroke="#323232" stroke-width="2.0" fill="none" transform="matrix(1.0,0.0,0.0,1.0,0.0,0.0)"/></marker><marker id="ProcessOnMarker1125" markerUnits="userSpaceOnUse" orient="auto" markerWidth="14.289086868996552" markerHeight="19.055054660878554" viewBox="-0.5877852522924731 -0.8090169943749475 14.289086868996552 19.055054660878554" refX="12.0" refY="8.71851033606433"><path id="ProcessOnPath1126" d="M0 0L12.0 8.71851033606433L0 17.43702067212866" stroke="#33ff33" stroke-width="2.0" fill="none" transform="matrix(1.0,0.0,0.0,1.0,0.0,0.0)"/></marker><marker id="ProcessOnMarker1132" markerUnits="userSpaceOnUse" orient="auto" markerWidth="14.289086868996552" markerHeight="19.055054660878554" viewBox="-0.5877852522924731 -0.8090169943749475 14.289086868996552 19.055054660878554" refX="12.0" refY="8.71851033606433"><path id="ProcessOnPath1133" d="M0 0L12.0 8.71851033606433L0 17.43702067212866" stroke="#323232" stroke-width="2.0" fill="none" transform="matrix(1.0,0.0,0.0,1.0,0.0,0.0)"/></marker><marker id="ProcessOnMarker1142" markerUnits="userSpaceOnUse" orient="auto" markerWidth="14.289086868996552" markerHeight="19.055054660878554" viewBox="-0.5877852522924731 -0.8090169943749475 14.289086868996552 19.055054660878554" refX="12.0" refY="8.71851033606433"><path id="ProcessOnPath1143" d="M0 0L12.0 8.71851033606433L0 17.43702067212866" stroke="#323232" stroke-width="2.0" fill="none" transform="matrix(1.0,0.0,0.0,1.0,0.0,0.0)"/></marker><marker id="ProcessOnMarker1151" markerUnits="userSpaceOnUse" orient="auto" markerWidth="14.289086868996552" markerHeight="19.055054660878554" viewBox="-0.5877852522924731 -0.8090169943749475 14.289086868996552 19.055054660878554" refX="12.0" refY="8.71851033606433"><path id="ProcessOnPath1152" d="M0 0L12.0 8.71851033606433L0 17.43702067212866" stroke="#323232" stroke-width="2.0" fill="none" transform="matrix(1.0,0.0,0.0,1.0,0.0,0.0)"/></marker><marker id="ProcessOnMarker1160" markerUnits="userSpaceOnUse" orient="auto" markerWidth="14.289086868996552" markerHeight="19.055054660878554" viewBox="-0.5877852522924731 -0.8090169943749475 14.289086868996552 19.055054660878554" refX="12.0" refY="8.71851033606433"><path id="ProcessOnPath1161" d="M0 0L12.0 8.71851033606433L0 17.43702067212866" stroke="#323232" stroke-width="2.0" fill="none" transform="matrix(1.0,0.0,0.0,1.0,0.0,0.0)"/></marker><marker id="ProcessOnMarker1169" markerUnits="userSpaceOnUse" orient="auto" markerWidth="14.289086868996552" markerHeight="19.055054660878554" viewBox="-0.5877852522924731 -0.8090169943749475 14.289086868996552 19.055054660878554" refX="12.0" refY="8.71851033606433"><path id="ProcessOnPath1170" d="M0 0L12.0 8.71851033606433L0 17.43702067212866" stroke="#33ff33" stroke-width="2.0" fill="none" transform="matrix(1.0,0.0,0.0,1.0,0.0,0.0)"/></marker><marker id="ProcessOnMarker1180" markerUnits="userSpaceOnUse" orient="auto" markerWidth="14.289086868996552" markerHeight="19.055054660878554" viewBox="-0.5877852522924731 -0.8090169943749475 14.289086868996552 19.055054660878554" refX="12.0" refY="8.71851033606433"><path id="ProcessOnPath1181" d="M0 0L12.0 8.71851033606433L0 17.43702067212866" stroke="#323232" stroke-width="2.0" fill="none" transform="matrix(1.0,0.0,0.0,1.0,0.0,0.0)"/></marker></defs><g id="ProcessOnG1002"><path id="ProcessOnPath1003" d="M190.03548895899053 82.95324427480921H1064.0V1099.0H190.03548895899053V82.95324427480921Z" fill="none"/><g id="ProcessOnG1004"><g id="ProcessOnG1005" transform="matrix(1.0,0.0,0.0,1.0,210.03548895899053,225.79007633587787)" opacity="1.0"><path id="ProcessOnPath1006" d="M14.035488958990536 6.493797709923664C14.035488958990536 -2.1645992366412212 28.07097791798107 -2.1645992366412212 28.07097791798107 6.493797709923664C28.07097791798107 15.152194656488549 14.035488958990536 15.152194656488549 14.035488958990536 6.493797709923664M21.053233438485805 12.987595419847327L21.053233438485805 38.962786259541986M21.053233438485805 38.962786259541986L3.508872239747634 51.95038167938931M21.053233438485805 38.962786259541986L38.59759463722397 51.95038167938931M0.0 25.975190839694655L42.10646687697161 25.975190839694655" stroke="#000000" stroke-width="2.0" stroke-dasharray="none" opacity="1.0" fill="#000000"/><path id="ProcessOnPath1007" d="M0.0 0.0L42.10646687697161 0.0L42.10646687697161 51.95038167938931L0.0 51.95038167938931Z" stroke="none" stroke-width="0.0" stroke-dasharray="none" opacity="1.0" fill="none"/></g><g id="ProcessOnG1008" transform="matrix(1.0,0.0,0.0,1.0,380.14274447949526,105.95324427480921)" opacity="1.0"><path id="ProcessOnPath1009" d="M50.62854889589903 30.0L50.62854889589903 955.0467557251908" stroke="#000000" stroke-width="2.0" stroke-dasharray="2.0 3.0" opacity="1.0" fill="none"/><path id="ProcessOnPath1010" d="M0.0 0.0L101.25709779179806 0.0L101.25709779179806 30.0L0.0 30.0Z" stroke="#000000" stroke-width="2.0" stroke-dasharray="none" opacity="1.0" fill="#ffffcc"/><g id="ProcessOnG1011" transform="matrix(1.0,0.0,0.0,1.0,10.0,6.875)"><text id="ProcessOnText1012" fill="#000000" font-size="13" x="39.62854889589903" y="13.325" font-family="微软雅黑" font-weight="bold" font-style="normal" text-decoration="none" family="微软雅黑" text-anchor="middle" size="13">start</text></g></g><g id="ProcessOnG1013" transform="matrix(1.0,0.0,0.0,1.0,592.8343848580441,102.95324427480921)" opacity="1.0"><path id="ProcessOnPath1014" d="M49.582807570977934 30.0L49.582807570977934 968.0467557251908" stroke="#000000" stroke-width="2.0" stroke-dasharray="2.0 3.0" opacity="1.0" fill="none"/><path id="ProcessOnPath1015" d="M0.0 0.0L99.16561514195587 0.0L99.16561514195587 30.0L0.0 30.0Z" stroke="#000000" stroke-width="2.0" stroke-dasharray="none" opacity="1.0" fill="#ffffcc"/><g id="ProcessOnG1016" transform="matrix(1.0,0.0,0.0,1.0,10.0,6.875)"><text id="ProcessOnText1017" fill="#000000" font-size="13" x="38.582807570977934" y="13.325" font-family="微软雅黑" font-weight="bold" font-style="normal" text-decoration="none" family="微软雅黑" text-anchor="middle" size="13">actor1</text></g></g><g id="ProcessOnG1018" transform="matrix(1.0,0.0,0.0,1.0,766.6672067340198,105.95324427480917)" opacity="1.0"><path id="ProcessOnPath1019" d="M71.16639663299009 30.0L71.16639663299009 962.0467557251908" stroke="#000000" stroke-width="2.0" stroke-dasharray="2.0 3.0" opacity="1.0" fill="none"/><path id="ProcessOnPath1020" d="M0.0 0.0L142.33279326598017 0.0L142.33279326598017 30.0L0.0 30.0Z" stroke="#000000" stroke-width="2.0" stroke-dasharray="none" opacity="1.0" fill="#ffffcc"/><g id="ProcessOnG1021" transform="matrix(1.0,0.0,0.0,1.0,10.0,6.875)"><text id="ProcessOnText1022" fill="#000000" font-size="13" x="60.166396632990086" y="13.325" font-family="微软雅黑" font-weight="bold" font-style="normal" text-decoration="none" family="微软雅黑" text-anchor="middle" size="13">actor2</text></g></g><g id="ProcessOnG1023"><path id="ProcessOnPath1024" d="M251.76012447417162 252.12405367426254L334.3453619216284 252.12405367426254L334.3453619216284 251.7757633587786L401.6945313915854 251.7757633587786" stroke="#000000" stroke-width="2.0" stroke-dasharray="none" fill="none" marker-end="url(#ProcessOnMarker1025)"/><g id="ProcessOnG1027" transform="matrix(1.0,0.0,0.0,1.0,326.90147309062047,244.62405367426254)"><path id="ProcessOnPath1028" d="M0 0H46.0V15.0H0Z" fill="#fff" transform="matrix(1.0,0.0,0.0,1.0,-23.0,0.0)"/><text id="ProcessOnText1029" fill="#000000" font-size="12" x="0.0" y="12.3" font-family="微软雅黑" font-weight="bold" font-style="normal" text-decoration="none" family="微软雅黑" text-anchor="middle" size="12">request</text></g></g><g id="ProcessOnG1030" transform="matrix(1.0,0.0,0.0,1.0,415.7712933753943,187.875)" opacity="1.0"><path id="ProcessOnPath1031" d="M0.0 0.0L21.593059936908503 0.0L21.593059936908503 102.125L0.0 102.125Z" stroke="#990000" stroke-width="2.0" stroke-dasharray="none" opacity="1.0" fill="#ffffff"/></g><g id="ProcessOnG1032" transform="matrix(1.0,0.0,0.0,1.0,627.9231072555206,321.74045801526717)" opacity="1.0"><path id="ProcessOnPath1033" d="M0.0 0.0L21.593059936908276 0.0L21.593059936908276 78.92461832061065L0.0 78.92461832061065Z" stroke="#990000" stroke-width="2.0" stroke-dasharray="none" opacity="1.0" fill="#ffffff"/></g><g id="ProcessOnG1034" transform="matrix(1.0,0.0,0.0,1.0,827.8336033670099,459.642175572519)" opacity="1.0"><path id="ProcessOnPath1035" d="M0.0 0.0L20.0 0.0L20.0 120.35782442748098L0.0 120.35782442748098Z" stroke="#990000" stroke-width="2.0" stroke-dasharray="none" opacity="1.0" fill="#ffffff"/></g><g id="ProcessOnG1036" transform="matrix(1.0,0.0,0.0,1.0,976.7740536277602,111.9532442748091)" opacity="1.0"><path id="ProcessOnPath1037" d="M33.612973186119916 30.0L33.612973186119916 967.0467557251909" stroke="#000000" stroke-width="2.0" stroke-dasharray="2.0 3.0" opacity="1.0" fill="none"/><path id="ProcessOnPath1038" d="M0.0 0.0L67.22594637223983 0.0L67.22594637223983 30.0L0.0 30.0Z" stroke="#000000" stroke-width="2.0" stroke-dasharray="none" opacity="1.0" fill="#ffffcc"/><g id="ProcessOnG1039" transform="matrix(1.0,0.0,0.0,1.0,10.0,6.875)"><text id="ProcessOnText1040" fill="#000000" font-size="13" x="22.612973186119916" y="13.325" font-family="微软雅黑" font-weight="bold" font-style="normal" text-decoration="none" family="微软雅黑" text-anchor="middle" size="13">tm</text></g></g><g id="ProcessOnG1041"><path id="ProcessOnPath1042" d="M437.3643533123028 238.9375L724.1821766561513 238.9375L724.1821766561513 238.9375L1011.0 238.9375" stroke="#323232" stroke-width="2.0" stroke-dasharray="none" fill="none" marker-end="url(#ProcessOnMarker1043)"/><g id="ProcessOnG1045" transform="matrix(1.0,0.0,0.0,1.0,724.1821766561513,230.8125)"><path id="ProcessOnPath1046" d="M0 0H65.0V16.25H0Z" fill="#fff" transform="matrix(1.0,0.0,0.0,1.0,-32.5,0.0)"/><text id="ProcessOnText1047" fill="#000000" font-size="13" x="0.0" y="13.325" font-family="微软雅黑" font-weight="normal" font-style="normal" text-decoration="none" family="微软雅黑" text-anchor="middle" size="13">创建事务组</text></g></g><g id="ProcessOnG1048"><path id="ProcessOnPath1049" d="M426.56782334384854 187.875L426.56782334384854 157.875L467.3643533123028 157.875L467.3643533123028 212.8729788332224L437.0 212.8729788332224" stroke="#323232" stroke-width="2.0" stroke-dasharray="none" fill="none" marker-end="url(#ProcessOnMarker1050)"/><g id="ProcessOnG1052" transform="matrix(1.0,0.0,0.0,1.0,467.3643533123028,157.03290108853548)"><path id="ProcessOnPath1053" d="M0 0H23.0V16.25H0Z" fill="#fff" transform="matrix(1.0,0.0,0.0,1.0,-11.5,0.0)"/><text id="ProcessOnText1054" fill="#000000" font-size="13" x="0.0" y="13.325" font-family="微软雅黑" font-weight="normal" font-style="normal" text-decoration="none" family="微软雅黑" text-anchor="middle" size="13">aop</text></g></g><g id="ProcessOnG1055"><path id="ProcessOnPath1056" d="M649.0 373.0L833.5 373.0L833.5 373.0L1018.0 373.0" stroke="#323232" stroke-width="2.0" stroke-dasharray="none" fill="none" marker-end="url(#ProcessOnMarker1057)"/><g id="ProcessOnG1059" transform="matrix(1.0,0.0,0.0,1.0,833.5,364.875)"><path id="ProcessOnPath1060" d="M0 0H130.0V16.25H0Z" fill="#fff" transform="matrix(1.0,0.0,0.0,1.0,-65.0,0.0)"/><text id="ProcessOnText1061" fill="#000000" font-size="13" x="0.0" y="13.325" font-family="微软雅黑" font-weight="normal" font-style="normal" text-decoration="none" family="微软雅黑" text-anchor="middle" size="13">加入事务组并注册监听</text></g></g><g id="ProcessOnG1062"><path id="ProcessOnPath1063" d="M437.0 256.0L728.0 256.0L728.0 266.0L1019.0 266.0" stroke="#323232" stroke-width="2.0" stroke-dasharray="none" fill="none" marker-end="url(#ProcessOnMarker1064)"/><g id="ProcessOnG1066" transform="matrix(1.0,0.0,0.0,1.0,728.0,252.875)"><path id="ProcessOnPath1067" d="M0 0H130.0V16.25H0Z" fill="#fff" transform="matrix(1.0,0.0,0.0,1.0,-65.0,0.0)"/><text id="ProcessOnText1068" fill="#000000" font-size="13" x="0.0" y="13.325" font-family="微软雅黑" font-weight="normal" font-style="normal" text-decoration="none" family="微软雅黑" text-anchor="middle" size="13">加入事务组并注册监听</text></g></g><g id="ProcessOnG1069"><path id="ProcessOnPath1070" d="M638.7196372239747 321.74045801526717L638.7196372239747 291.74045801526717L679.5161671924288 291.74045801526717L679.5161671924288 361.2027671755725L649.5161671924288 361.2027671755725" stroke="#323232" stroke-width="2.0" stroke-dasharray="none" fill="none" marker-end="url(#ProcessOnMarker1071)"/><g id="ProcessOnG1073" transform="matrix(1.0,0.0,0.0,1.0,679.5161671924288,297.94834761119273)"><path id="ProcessOnPath1074" d="M0 0H23.0V16.25H0Z" fill="#fff" transform="matrix(1.0,0.0,0.0,1.0,-11.5,0.0)"/><text id="ProcessOnText1075" fill="#000000" font-size="13" x="0.0" y="13.325" font-family="微软雅黑" font-weight="normal" font-style="normal" text-decoration="none" family="微软雅黑" text-anchor="middle" size="13">aop</text></g></g><g id="ProcessOnG1076"><path id="ProcessOnPath1077" d="M649.0 380.0L679.5161671924288 380.0L679.5161671924288 430.6650763358778L638.7196372239747 430.6650763358778L638.7196372239747 400.6650763358778" stroke="#323232" stroke-width="2.0" stroke-dasharray="none" fill="none" marker-end="url(#ProcessOnMarker1078)"/><g id="ProcessOnG1080" transform="matrix(1.0,0.0,0.0,1.0,679.5161671924288,417.3477195559516)"><path id="ProcessOnPath1081" d="M0 0H143.0V16.25H0Z" fill="#fff" transform="matrix(1.0,0.0,0.0,1.0,-71.5,0.0)"/><text id="ProcessOnText1082" fill="#000000" font-size="13" x="0.0" y="13.325" font-family="微软雅黑" font-weight="normal" font-style="normal" text-decoration="none" family="微软雅黑" text-anchor="middle" size="13">执行业务并挂起本地事务</text></g></g><g id="ProcessOnG1083"><path id="ProcessOnPath1084" d="M837.8336033670099 459.642175572519L837.8336033670099 429.642175572519L877.8336033670099 429.642175572519L877.8336033670099 486.0L847.0 486.0" stroke="#323232" stroke-width="2.0" stroke-dasharray="none" fill="none" marker-end="url(#ProcessOnMarker1085)"/><g id="ProcessOnG1087" transform="matrix(1.0,0.0,0.0,1.0,877.8336033670099,430.11288946976447)"><path id="ProcessOnPath1088" d="M0 0H23.0V16.25H0Z" fill="#fff" transform="matrix(1.0,0.0,0.0,1.0,-11.5,0.0)"/><text id="ProcessOnText1089" fill="#000000" font-size="13" x="0.0" y="13.325" font-family="微软雅黑" font-weight="normal" font-style="normal" text-decoration="none" family="微软雅黑" text-anchor="middle" size="13">aop</text></g></g><g id="ProcessOnG1090"><path id="ProcessOnPath1091" d="M847.8336033670099 519.8210877862596L927.4168016835049 519.8210877862596L927.4168016835049 519.8210877862596L1007.0 519.8210877862596" stroke="#323232" stroke-width="2.0" stroke-dasharray="none" fill="none" marker-end="url(#ProcessOnMarker1092)"/><g id="ProcessOnG1094" transform="matrix(1.0,0.0,0.0,1.0,927.4168016835049,503.57108778625957)"><path id="ProcessOnPath1095" d="M0 0H65.0V32.5H0Z" fill="#fff" transform="matrix(1.0,0.0,0.0,1.0,-32.5,0.0)"/><text id="ProcessOnText1096" fill="#000000" font-size="13" x="0.0" y="13.325" font-family="微软雅黑" font-weight="normal" font-style="normal" text-decoration="none" family="微软雅黑" text-anchor="middle" size="13">加入事务组</text><text id="ProcessOnText1097" fill="#000000" font-size="13" x="0.0" y="29.575" font-family="微软雅黑" font-weight="normal" font-style="normal" text-decoration="none" family="微软雅黑" text-anchor="middle" size="13">并注册监听</text></g></g><g id="ProcessOnG1098"><path id="ProcessOnPath1099" d="M847.0 542.0L877.8336033670099 542.0L877.8336033670099 610.0L837.8336033670099 610.0L837.8336033670099 580.0" stroke="#323232" stroke-width="2.0" stroke-dasharray="none" fill="none" marker-end="url(#ProcessOnMarker1100)"/><g id="ProcessOnG1102" transform="matrix(1.0,0.0,0.0,1.0,877.8336033670099,587.4581983164951)"><path id="ProcessOnPath1103" d="M0 0H143.0V16.25H0Z" fill="#fff" transform="matrix(1.0,0.0,0.0,1.0,-71.5,0.0)"/><text id="ProcessOnText1104" fill="#000000" font-size="13" x="0.0" y="13.325" font-family="微软雅黑" font-weight="normal" font-style="normal" text-decoration="none" family="微软雅黑" text-anchor="middle" size="13">执行业务并挂起本地事务</text></g></g><g id="ProcessOnG1105" transform="matrix(1.0,0.0,0.0,1.0,415.7712933753943,615.0)" opacity="1.0"><path id="ProcessOnPath1106" d="M0.0 4.0Q0.0 0.0 4.0 0.0L26.0 0.0Q30.0 0.0 30.0 4.0L30.0 94.0Q30.0 98.0 26.0 98.0L4.0 98.0Q0.0 98.0 0.0 94.0L0.0 4.0Z" stroke="#323232" stroke-width="2.0" stroke-dasharray="none" opacity="1.0" fill="#ffffff"/></g><g id="ProcessOnG1107"><path id="ProcessOnPath1108" d="M437.0 269.0L467.3643533123028 269.0L467.3643533123028 320.0L426.56782334384854 320.0L426.56782334384854 290.0" stroke="#323232" stroke-width="2.0" stroke-dasharray="none" fill="none" marker-end="url(#ProcessOnMarker1109)"/><g id="ProcessOnG1111" transform="matrix(1.0,0.0,0.0,1.0,467.3643533123028,306.5910883280757)"><path id="ProcessOnPath1112" d="M0 0H143.0V16.25H0Z" fill="#fff" transform="matrix(1.0,0.0,0.0,1.0,-71.5,0.0)"/><text id="ProcessOnText1113" fill="#000000" font-size="13" x="0.0" y="13.325" font-family="微软雅黑" font-weight="normal" font-style="normal" text-decoration="none" family="微软雅黑" text-anchor="middle" size="13">执行业务并挂起本地事务</text></g></g><g id="ProcessOnG1114"><path id="ProcessOnPath1115" d="M445.0 625.0L722.69351340694 625.0L722.69351340694 627.0L1000.3870268138801 627.0" stroke="#323232" stroke-width="2.0" stroke-dasharray="none" fill="none" marker-end="url(#ProcessOnMarker1116)"/><g id="ProcessOnG1118" transform="matrix(1.0,0.0,0.0,1.0,722.69351340694,617.875)"><path id="ProcessOnPath1119" d="M0 0H65.0V16.25H0Z" fill="#fff" transform="matrix(1.0,0.0,0.0,1.0,-32.5,0.0)"/><text id="ProcessOnText1120" fill="#000000" font-size="13" x="0.0" y="13.325" font-family="微软雅黑" font-weight="normal" font-style="normal" text-decoration="none" family="微软雅黑" text-anchor="middle" size="13">预提交事务</text></g></g><g id="ProcessOnG1121" transform="matrix(1.0,0.0,0.0,1.0,1000.3870268138801,593.0)" opacity="1.0"><path id="ProcessOnPath1122" d="M0.0 0.0L20.0 0.0L20.0 68.0L0.0 68.0Z" stroke="#323232" stroke-width="2.0" stroke-dasharray="none" opacity="1.0" fill="#ffffff"/></g><g id="ProcessOnG1123"><path id="ProcessOnPath1124" d="M1001.0 648.0L723.0 648.0L723.0 647.0L445.0 647.0" stroke="#33ff33" stroke-width="2.0" stroke-dasharray="10.0 4.0" fill="none" marker-end="url(#ProcessOnMarker1125)"/><g id="ProcessOnG1127" transform="matrix(1.0,0.0,0.0,1.0,723.0,639.375)"><path id="ProcessOnPath1128" d="M0 0H65.0V16.25H0Z" fill="#fff" transform="matrix(1.0,0.0,0.0,1.0,-32.5,0.0)"/><text id="ProcessOnText1129" fill="#000000" font-size="13" x="0.0" y="13.325" font-family="微软雅黑" font-weight="normal" font-style="normal" text-decoration="none" family="微软雅黑" text-anchor="middle" size="13">预提交成功</text></g></g><g id="ProcessOnG1130"><path id="ProcessOnPath1131" d="M445.0 697.0L723.0 697.0L723.0 695.0L1001.0 695.0" stroke="#323232" stroke-width="2.0" stroke-dasharray="none" fill="none" marker-end="url(#ProcessOnMarker1132)"/><g id="ProcessOnG1134" transform="matrix(1.0,0.0,0.0,1.0,723.0,679.75)"><path id="ProcessOnPath1135" d="M0 0H104.0V32.5H0Z" fill="#fff" transform="matrix(1.0,0.0,0.0,1.0,-52.0,0.0)"/><text id="ProcessOnText1136" fill="#000000" font-size="13" x="0.0" y="13.325" font-family="微软雅黑" font-weight="normal" font-style="normal" text-decoration="none" family="微软雅黑" text-anchor="middle" size="13">让tm通知参与者</text><text id="ProcessOnText1137" fill="#000000" font-size="13" x="0.0" y="29.575" font-family="微软雅黑" font-weight="normal" font-style="normal" text-decoration="none" family="微软雅黑" text-anchor="middle" size="13">提交或者回滚事务</text></g></g><g id="ProcessOnG1138" transform="matrix(1.0,0.0,0.0,1.0,1000.3870268138801,679.0)" opacity="1.0"><path id="ProcessOnPath1139" d="M0.0 0.0L20.0 0.0L20.0 214.0L0.0 214.0Z" stroke="#323232" stroke-width="2.0" stroke-dasharray="none" opacity="1.0" fill="#ffffff"/></g><g id="ProcessOnG1140"><path id="ProcessOnPath1141" d="M1001.0 753.0L718.3856466876971 753.0L718.3856466876971 752.0L435.7712933753943 752.0" stroke="#323232" stroke-width="2.0" stroke-dasharray="none" fill="none" marker-end="url(#ProcessOnMarker1142)"/><g id="ProcessOnG1144" transform="matrix(1.0,0.0,0.0,1.0,718.3856466876971,744.375)"><path id="ProcessOnPath1145" d="M0 0H110.0V16.25H0Z" fill="#fff" transform="matrix(1.0,0.0,0.0,1.0,-55.0,0.0)"/><text id="ProcessOnText1146" fill="#000000" font-size="13" x="0.0" y="13.325" font-family="微软雅黑" font-weight="normal" font-style="normal" text-decoration="none" family="微软雅黑" text-anchor="middle" size="13">通知事务提交/回滚</text></g></g><g id="ProcessOnG1147" transform="matrix(1.0,0.0,0.0,1.0,415.7712933753943,726.0)" opacity="1.0"><path id="ProcessOnPath1148" d="M0.0 0.0L20.0 0.0L20.0 52.0L0.0 52.0Z" stroke="#323232" stroke-width="2.0" stroke-dasharray="none" opacity="1.0" fill="#ffffff"/></g><g id="ProcessOnG1149"><path id="ProcessOnPath1150" d="M993.0 790.0L820.8598186119873 790.0L820.8598186119873 786.0L648.7196372239747 786.0" stroke="#323232" stroke-width="2.0" stroke-dasharray="none" fill="none" marker-end="url(#ProcessOnMarker1151)"/><g id="ProcessOnG1153" transform="matrix(1.0,0.0,0.0,1.0,820.8598186119873,779.875)"><path id="ProcessOnPath1154" d="M0 0H110.0V16.25H0Z" fill="#fff" transform="matrix(1.0,0.0,0.0,1.0,-55.0,0.0)"/><text id="ProcessOnText1155" fill="#000000" font-size="13" x="0.0" y="13.325" font-family="微软雅黑" font-weight="normal" font-style="normal" text-decoration="none" family="微软雅黑" text-anchor="middle" size="13">通知事务提交/回滚</text></g></g><g id="ProcessOnG1156" transform="matrix(1.0,0.0,0.0,1.0,628.7196372239747,755.0)" opacity="1.0"><path id="ProcessOnPath1157" d="M0.0 0.0L20.0 0.0L20.0 62.0L0.0 62.0Z" stroke="#323232" stroke-width="2.0" stroke-dasharray="none" opacity="1.0" fill="#ffffff"/></g><g id="ProcessOnG1158"><path id="ProcessOnPath1159" d="M1001.0 823.0L924.4168016835049 823.0L924.4168016835049 822.5L847.8336033670099 822.5" stroke="#323232" stroke-width="2.0" stroke-dasharray="none" fill="none" marker-end="url(#ProcessOnMarker1160)"/><g id="ProcessOnG1162" transform="matrix(1.0,0.0,0.0,1.0,924.4168016835049,814.625)"><path id="ProcessOnPath1163" d="M0 0H110.0V16.25H0Z" fill="#fff" transform="matrix(1.0,0.0,0.0,1.0,-55.0,0.0)"/><text id="ProcessOnText1164" fill="#000000" font-size="13" x="0.0" y="13.325" font-family="微软雅黑" font-weight="normal" font-style="normal" text-decoration="none" family="微软雅黑" text-anchor="middle" size="13">通知事务提交/回滚</text></g></g><g id="ProcessOnG1165" transform="matrix(1.0,0.0,0.0,1.0,827.8336033670099,795.0)" opacity="1.0"><path id="ProcessOnPath1166" d="M0.0 0.0L20.0 0.0L20.0 55.0L0.0 55.0Z" stroke="#323232" stroke-width="2.0" stroke-dasharray="none" opacity="1.0" fill="#ffffff"/></g><g id="ProcessOnG1167"><path id="ProcessOnPath1168" d="M1001.0 872.0L718.3856466876971 872.0L718.3856466876971 873.0L435.7712933753943 873.0" stroke="#33ff33" stroke-width="2.0" stroke-dasharray="none" fill="none" marker-end="url(#ProcessOnMarker1169)"/><g id="ProcessOnG1171" transform="matrix(1.0,0.0,0.0,1.0,718.3856466876971,864.375)"><path id="ProcessOnPath1172" d="M0 0H52.0V16.25H0Z" fill="#fff" transform="matrix(1.0,0.0,0.0,1.0,-26.0,0.0)"/><text id="ProcessOnText1173" fill="#000000" font-size="13" x="0.0" y="13.325" font-family="微软雅黑" font-weight="normal" font-style="normal" text-decoration="none" family="微软雅黑" text-anchor="middle" size="13">通知结束</text></g></g><g id="ProcessOnG1174" transform="matrix(1.0,0.0,0.0,1.0,415.7712933753943,839.0)" opacity="1.0"><path id="ProcessOnPath1175" d="M0.0 0.0L20.0 0.0L20.0 68.0L0.0 68.0Z" stroke="#323232" stroke-width="2.0" stroke-dasharray="none" opacity="1.0" fill="#ffffff"/></g><g id="ProcessOnG1176" transform="matrix(1.0,0.0,0.0,1.0,420.7712933753943,976.0)" opacity="1.0"><path id="ProcessOnPath1177" d="M0.0 0.0L20.0 0.0L20.0 47.0L0.0 47.0Z" stroke="#323232" stroke-width="2.0" stroke-dasharray="none" opacity="1.0" fill="#ffffff"/></g><g id="ProcessOnG1178"><path id="ProcessOnPath1179" d="M440.7712933753943 999.5L723.8856466876971 999.5L723.8856466876971 999.5L1007.0 999.5" stroke="#323232" stroke-width="2.0" stroke-dasharray="none" fill="none" marker-end="url(#ProcessOnMarker1180)"/><g id="ProcessOnG1182" transform="matrix(1.0,0.0,0.0,1.0,723.8856466876971,991.375)"><path id="ProcessOnPath1183" d="M0 0H52.0V16.25H0Z" fill="#fff" transform="matrix(1.0,0.0,0.0,1.0,-26.0,0.0)"/><text id="ProcessOnText1184" fill="#000000" font-size="13" x="0.0" y="13.325" font-family="微软雅黑" font-weight="normal" font-style="normal" text-decoration="none" family="微软雅黑" text-anchor="middle" size="13">提交事务</text></g></g><g id="ProcessOnG1185" transform="matrix(1.0,0.0,0.0,1.0,1007.0,964.5)" opacity="1.0"><path id="ProcessOnPath1186" d="M0.0 0.0L20.0 0.0L20.0 70.0L0.0 70.0Z" stroke="#323232" stroke-width="2.0" stroke-dasharray="none" opacity="1.0" fill="#ffffff"/></g></g></g></svg>